<svg width="32" height="32" viewBox="0 0 32 32" fill="none" xmlns="http://www.w3.org/2000/svg">
<g id="name=notification, size=large, status=disabled">
<mask id="mask0_91_1208" style="mask-type:alpha" maskUnits="userSpaceOnUse" x="0" y="0" width="32" height="32">
<rect id="Bounding box" width="32" height="32" fill="#D9D9D9"/>
</mask>
<g mask="url(#mask0_91_1208)">
<path id="notifications" d="M6.66669 25.0257V23.8973H8.82069V13.0907C8.82069 11.3473 9.36824 9.80489 10.4634 8.46333C11.5585 7.122 12.9596 6.29689 14.6667 5.988V5.33333C14.6667 4.96289 14.796 4.64811 15.0547 4.389C15.3134 4.12967 15.6275 4 15.997 4C16.3666 4 16.6817 4.12967 16.9424 4.389C17.203 4.64811 17.3334 4.96289 17.3334 5.33333V5.99667C19.0405 6.29978 20.4416 7.122 21.5367 8.46333C22.6318 9.80489 23.1794 11.3473 23.1794 13.0907V23.8973H25.3334V25.0257H6.66669ZM15.9954 28.5127C15.4018 28.5127 14.8952 28.3018 14.4757 27.88C14.0559 27.4582 13.846 26.9512 13.846 26.359H18.154C18.154 26.9557 17.9426 27.4638 17.5197 27.8833C17.097 28.3029 16.5889 28.5127 15.9954 28.5127ZM9.94869 23.8973H22.0514V13.0907C22.0514 11.4164 21.4614 9.98933 20.2814 8.80933C19.1011 7.62933 17.674 7.03933 16 7.03933C14.326 7.03933 12.8989 7.62933 11.7187 8.80933C10.5387 9.98933 9.94869 11.4164 9.94869 13.0907V23.8973Z" fill="white"/>
</g>
</g>
</svg>
