<svg width="24" height="25" viewBox="0 0 24 25" fill="none" xmlns="http://www.w3.org/2000/svg">
<mask id="mask0_2109_876" style="mask-type:alpha" maskUnits="userSpaceOnUse" x="0" y="0" width="24" height="25">
<rect y="0.771362" width="24" height="24" fill="#D9D9D9"/>
</mask>
<g mask="url(#mask0_2109_876)">
<path d="M11.5653 14.6444L8.88806 11.9671C8.85123 11.9303 8.82031 11.8874 8.79531 11.8384C8.77031 11.7895 8.75781 11.7372 8.75781 11.6814C8.75781 11.5695 8.79481 11.4733 8.86881 11.3926C8.94281 11.3118 9.0404 11.2714 9.16156 11.2714H14.8386C14.9597 11.2714 15.0573 11.3126 15.1313 11.3951C15.2053 11.4776 15.2423 11.5739 15.2423 11.6839C15.2423 11.7114 15.1987 11.8059 15.1116 11.9676L12.4346 14.6444C12.3731 14.706 12.3066 14.7535 12.2353 14.7869C12.164 14.8202 12.0856 14.8369 12.0001 14.8369C11.9146 14.8369 11.8361 14.8202 11.7648 14.7869C11.6935 14.7535 11.627 14.706 11.5653 14.6444Z" fill="white"/>
</g>
</svg>
