<svg width="16" height="16" viewBox="0 0 16 16" fill="none" xmlns="http://www.w3.org/2000/svg">
<g id="kid_star">
<mask id="mask0_1375_7002" style="mask-type:alpha" maskUnits="userSpaceOnUse" x="0" y="0" width="16" height="16">
<rect id="Bounding box" width="16" height="16" fill="#D9D9D9"/>
</mask>
<g mask="url(#mask0_1375_7002)">
<path id="kid_star_2" d="M5.25008 4.49758L7.05258 2.13208C7.17225 1.97197 7.31436 1.85441 7.47892 1.77941C7.64347 1.7043 7.81719 1.66675 8.00008 1.66675C8.18297 1.66675 8.35669 1.7043 8.52125 1.77941C8.6858 1.85441 8.82791 1.97197 8.94758 2.13208L10.7501 4.49758L13.5064 5.42825C13.7697 5.51291 13.9751 5.66219 14.1224 5.87608C14.2699 6.09008 14.3436 6.32641 14.3436 6.58508C14.3436 6.70453 14.3261 6.82358 14.2912 6.94225C14.2564 7.06092 14.199 7.17464 14.1192 7.28341L12.3244 9.77442L12.3911 12.4181C12.4022 12.7691 12.2865 13.0649 12.0439 13.3056C11.8015 13.5464 11.5189 13.6667 11.1962 13.6667C11.1868 13.6667 11.0752 13.6522 10.8616 13.6231L8.00008 12.8026L5.13858 13.6231C5.08303 13.6453 5.02569 13.6581 4.96658 13.6616C4.90747 13.665 4.85325 13.6667 4.80392 13.6667C4.47825 13.6667 4.19491 13.5464 3.95391 13.3056C3.71291 13.0649 3.59797 12.7691 3.60908 12.4181L3.67575 9.75775L1.89108 7.28341C1.8113 7.17419 1.75397 7.06003 1.71908 6.94092C1.68419 6.82169 1.66675 6.70253 1.66675 6.58342C1.66675 6.33197 1.73997 6.09814 1.88641 5.88191C2.03286 5.66569 2.23741 5.51236 2.50008 5.42191L5.25008 4.49758Z" fill="#FF6E1F"/>
</g>
</g>
</svg>
