<svg width="24" height="25" viewBox="0 0 24 25" fill="none" xmlns="http://www.w3.org/2000/svg">
<mask id="mask0_638_4196" style="mask-type:alpha" maskUnits="userSpaceOnUse" x="0" y="0" width="24" height="25">
<rect y="0.271362" width="24" height="24" fill="#D9D9D9"/>
</mask>
<g mask="url(#mask0_638_4196)">
<path d="M8.4 16.5791L12 12.9791L15.6 16.5791L16.3077 15.8714L12.7078 12.2714L16.3077 8.67136L15.6 7.96361L12 11.5636L8.4 7.96361L7.69225 8.67136L11.2923 12.2714L7.69225 15.8714L8.4 16.5791ZM12.0033 21.2714C10.7587 21.2714 9.58867 21.0352 8.493 20.5629C7.3975 20.0905 6.4445 19.4495 5.634 18.6399C4.8235 17.8302 4.18192 16.878 3.70925 15.7834C3.23642 14.6889 3 13.5193 3 12.2746C3 11.0301 3.23617 9.86003 3.7085 8.76436C4.18083 7.66886 4.82183 6.71586 5.6315 5.90536C6.44117 5.09486 7.39333 4.45328 8.488 3.98061C9.5825 3.50778 10.7521 3.27136 11.9967 3.27136C13.2413 3.27136 14.4113 3.50753 15.507 3.97986C16.6025 4.4522 17.5555 5.0932 18.366 5.90286C19.1765 6.71253 19.8181 7.6647 20.2908 8.75936C20.7636 9.85386 21 11.0234 21 12.2681C21 13.5126 20.7638 14.6827 20.2915 15.7784C19.8192 16.8739 19.1782 17.8269 18.3685 18.6374C17.5588 19.4479 16.6067 20.0894 15.512 20.5621C14.4175 21.0349 13.2479 21.2714 12.0033 21.2714Z" fill="#CACACA"/>
</g>
</svg>
