<svg width="25" height="24" viewBox="0 0 25 24" fill="none" xmlns="http://www.w3.org/2000/svg">
<g id="check">
<mask id="mask0_1990_1408" style="mask-type:alpha" maskUnits="userSpaceOnUse" x="0" y="0" width="25" height="24">
<rect id="Bounding box" x="0.5" width="24" height="24" fill="#D9D9D9"/>
</mask>
<g mask="url(#mask0_1990_1408)">
<path id="check_2" d="M10.0502 15.15L18.5252 6.675C18.7252 6.475 18.9585 6.375 19.2252 6.375C19.4919 6.375 19.7252 6.475 19.9252 6.675C20.1252 6.875 20.2252 7.1125 20.2252 7.3875C20.2252 7.6625 20.1252 7.9 19.9252 8.1L10.7502 17.3C10.5502 17.5 10.3169 17.6 10.0502 17.6C9.78354 17.6 9.55021 17.5 9.35021 17.3L5.05021 13C4.85021 12.8 4.75437 12.5625 4.76271 12.2875C4.77104 12.0125 4.87521 11.775 5.07521 11.575C5.27521 11.375 5.51271 11.275 5.78771 11.275C6.06271 11.275 6.30021 11.375 6.50021 11.575L10.0502 15.15Z" fill="#FF6E1F"/>
</g>
</g>
</svg>
