<svg width="32" height="33" viewBox="0 0 32 33" fill="none" xmlns="http://www.w3.org/2000/svg">
<mask id="mask0_1204_11626" style="mask-type:alpha" maskUnits="userSpaceOnUse" x="0" y="0" width="32" height="33">
<rect y="0.5" width="32" height="32" fill="#D9D9D9"/>
</mask>
<g mask="url(#mask0_1204_11626)">
<path d="M10.8333 9.95633L14.3103 5.32833C14.5223 5.04322 14.774 4.83389 15.0653 4.70033C15.3569 4.56678 15.6684 4.5 16 4.5C16.3316 4.5 16.6431 4.56678 16.9347 4.70033C17.226 4.83389 17.4777 5.04322 17.6897 5.32833L21.1667 9.95633L26.5257 11.7793C27.0008 11.9402 27.3666 12.2096 27.623 12.5873C27.8794 12.9653 28.0077 13.3829 28.0077 13.84C28.0077 14.0509 27.9768 14.2603 27.915 14.4683C27.8532 14.6766 27.7517 14.876 27.6103 15.0667L24.0973 19.8307L24.2307 24.9383C24.2529 25.5648 24.0457 26.0928 23.609 26.5223C23.1723 26.9519 22.6642 27.1667 22.0847 27.1667C22.0916 27.1667 21.8898 27.1419 21.4793 27.0923L16 25.477L10.5207 27.0923C10.4096 27.1368 10.3023 27.1602 10.199 27.1627C10.0959 27.1653 10.0013 27.1667 9.91533 27.1667C9.324 27.1667 8.81289 26.9519 8.382 26.5223C7.95133 26.0928 7.74711 25.5648 7.76933 24.9383L7.90267 19.7973L4.39733 15.0667C4.256 14.8742 4.15444 14.673 4.09267 14.463C4.03089 14.2532 4 14.0433 4 13.8333C4 13.3833 4.13178 12.9648 4.39533 12.5777C4.65911 12.1906 5.02733 11.916 5.5 11.754L10.8333 9.95633ZM11.6717 11.1027L5.94867 13.0307C5.69222 13.1162 5.517 13.2914 5.423 13.5563C5.329 13.8214 5.36744 14.0651 5.53833 14.2873L9.26167 19.4077L9.10267 24.954C9.08556 25.2444 9.18811 25.4751 9.41033 25.646C9.63256 25.8171 9.88045 25.8599 10.154 25.7743L16 24.095L21.846 25.8077C22.1196 25.8932 22.3674 25.8504 22.5897 25.6793C22.8119 25.5084 22.9144 25.2778 22.8973 24.9873L22.7383 19.4077L26.4617 14.354C26.6326 14.1318 26.671 13.8881 26.577 13.623C26.483 13.3581 26.3078 13.1829 26.0513 13.0973L20.3283 11.1027L16.641 6.19233C16.4872 5.97011 16.2736 5.859 16 5.859C15.7264 5.859 15.5128 5.97011 15.359 6.19233L11.6717 11.1027Z" fill="#CACACA"/>
</g>
</svg>
