<svg width="24" height="24" viewBox="0 0 24 24" fill="none" xmlns="http://www.w3.org/2000/svg">
<g id="icon">
<mask id="mask0_1990_439" style="mask-type:alpha" maskUnits="userSpaceOnUse" x="0" y="0" width="24" height="24">
<rect id="Bounding box" width="24" height="24" fill="#D9D9D9"/>
</mask>
<g mask="url(#mask0_1990_439)">
<path id="maps_ugc" d="M2.46143 21.5385L4.02693 16.223C3.71026 15.5525 3.45993 14.8652 3.27593 14.1613C3.09193 13.4573 2.99993 12.7368 2.99993 12C2.99993 10.755 3.23609 9.585 3.70843 8.49C4.18076 7.395 4.82176 6.4425 5.63143 5.6325C6.44109 4.8225 7.39326 4.18125 8.48793 3.70875C9.58243 3.23625 10.752 3 11.9967 3C13.2412 3 14.4113 3.23617 15.5069 3.7085C16.6024 4.18083 17.5554 4.82183 18.3659 5.6315C19.1764 6.44117 19.818 7.39333 20.2907 8.488C20.7635 9.5825 20.9999 10.7521 20.9999 11.9967C20.9999 13.2413 20.7637 14.4113 20.2912 15.507C19.8187 16.6025 19.1774 17.5555 18.3674 18.366C17.5574 19.1765 16.6049 19.8181 15.5099 20.2908C14.4149 20.7636 13.2449 21 11.9999 21C11.2631 21 10.5427 20.908 9.83868 20.724C9.13468 20.54 8.44743 20.2897 7.77693 19.973L2.46143 21.5385ZM3.94993 20.05L7.14993 19.1C7.40893 19.0333 7.64643 19.0019 7.86243 19.0058C8.07843 19.0096 8.30759 19.0743 8.54993 19.2C9.08326 19.4667 9.64159 19.6667 10.2249 19.8C10.8083 19.9333 11.3999 20 11.9999 20C14.2333 20 16.1249 19.225 17.6749 17.675C19.2249 16.125 19.9999 14.2333 19.9999 12C19.9999 9.76667 19.2249 7.875 17.6749 6.325C16.1249 4.775 14.2333 4 11.9999 4C9.76659 4 7.87493 4.775 6.32493 6.325C4.77493 7.875 3.99993 9.76667 3.99993 12C3.99993 12.6 4.06659 13.1917 4.19993 13.775C4.33326 14.3583 4.53326 14.9167 4.79993 15.45C4.91659 15.6667 4.98226 15.8958 4.99693 16.1375C5.01176 16.3792 4.97943 16.6167 4.89993 16.85L3.94993 20.05Z" fill="#646464"/>
</g>
</g>
</svg>
