<svg width="16" height="17" viewBox="0 0 16 17" fill="none" xmlns="http://www.w3.org/2000/svg">
<mask id="mask0_2090_2869" style="mask-type:alpha" maskUnits="userSpaceOnUse" x="0" y="0" width="16" height="17">
<rect y="0.912354" width="16" height="16" fill="#D9D9D9"/>
</mask>
<g mask="url(#mask0_2090_2869)">
<path d="M5.25033 5.40993L7.05283 3.04443C7.17249 2.88432 7.3146 2.76677 7.47916 2.69177C7.64371 2.61666 7.81744 2.5791 8.00033 2.5791C8.18321 2.5791 8.35694 2.61666 8.52149 2.69177C8.68605 2.76677 8.82816 2.88432 8.94783 3.04443L10.7503 5.40993L13.5067 6.3406C13.77 6.42527 13.9753 6.57455 14.1227 6.78843C14.2701 7.00244 14.3438 7.23877 14.3438 7.49743C14.3438 7.61688 14.3264 7.73594 14.2915 7.8546C14.2566 7.97327 14.1993 8.08699 14.1195 8.19577L12.3247 10.6868L12.3913 13.3304C12.4024 13.6814 12.2867 13.9773 12.0442 14.2179C11.8017 14.4587 11.5192 14.5791 11.1965 14.5791C11.187 14.5791 11.0755 14.5645 10.8618 14.5354L8.00033 13.7149L5.13883 14.5354C5.08327 14.5577 5.02594 14.5705 4.96683 14.5739C4.90771 14.5774 4.85349 14.5791 4.80416 14.5791C4.47849 14.5791 4.19516 14.4587 3.95416 14.2179C3.71316 13.9773 3.59821 13.6814 3.60933 13.3304L3.67599 10.6701L1.89133 8.19577C1.81155 8.08655 1.75421 7.97238 1.71933 7.85327C1.68444 7.73405 1.66699 7.61488 1.66699 7.49577C1.66699 7.24432 1.74021 7.01049 1.88666 6.79427C2.0331 6.57805 2.23766 6.42471 2.50033 6.33427L5.25033 5.40993Z" fill="#FF6E1F"/>
</g>
</svg>
