<svg width="231" height="52" viewBox="0 0 231 52" fill="none" xmlns="http://www.w3.org/2000/svg">
<path d="M61.5987 9.37881C64.6753 8.95678 68.0582 9.2341 71.0093 11.3634L71.0907 11.4227C74.5172 13.9416 75.6244 17.975 75.4249 21.6872C75.2278 25.3555 73.7547 29.1204 71.45 31.6874L71.3396 31.8087C67.4701 36.0063 63.7112 37.5114 59.6973 38.5422L59.308 38.6406C56.2101 39.4111 51.4809 39.524 47.5032 37.5456C45.4687 36.5337 43.6162 34.9632 42.3463 32.6639C41.0804 30.3719 40.4744 27.5034 40.6811 24.0188C40.9717 19.0545 43.285 14.9358 46.4827 12.4465L49.1749 15.9051C47.0058 17.5937 45.2753 20.5292 45.0564 24.2763V24.2773L45.0563 24.2784C44.8882 27.1123 45.3958 29.1199 46.1829 30.5449C46.9659 31.9627 48.1061 32.9504 49.455 33.6213C52.2439 35.0084 55.8448 34.9855 58.2501 34.3872L58.593 34.3007C62.1153 33.3979 65.0073 32.2115 68.117 28.8381L68.192 28.7556C69.7597 27.0073 70.8993 24.2253 71.0483 21.452C71.1989 18.6494 70.3381 16.2818 68.4474 14.9196L68.4465 14.9191L68.4456 14.9185C66.7286 13.6791 64.6222 13.388 62.1944 13.7211C59.7416 14.0575 57.2072 14.998 54.8525 15.9562L54.8526 15.9563C54.4187 16.1346 53.6534 16.5365 52.7508 17.0287C51.9222 17.4805 50.9803 18.0073 50.3736 18.3091L48.4212 14.385C48.9296 14.1321 49.7321 13.6827 50.6525 13.1808C51.4989 12.7192 52.4872 12.1897 53.1869 11.9022L53.1902 11.9008L53.1936 11.8994L53.6454 11.7167C55.9389 10.7947 58.7395 9.77103 61.5987 9.37881Z" fill="white"/>
<path d="M97.8517 9.37881C100.928 8.95679 104.311 9.23408 107.262 11.3634L107.344 11.4227C110.77 13.9416 111.877 17.975 111.678 21.6871C111.481 25.3554 110.008 29.1204 107.703 31.6874L107.593 31.8087C103.723 36.0063 99.9641 37.5114 95.9502 38.5422L95.5609 38.6406C92.463 39.4111 87.7339 39.524 83.7561 37.5456C81.7216 36.5337 79.8692 34.9632 78.5992 32.6639C77.3333 30.3719 76.7273 27.5034 76.934 24.0188C77.2246 19.0545 79.5379 14.9358 82.7356 12.4465L85.4279 15.9051C83.2588 17.5937 81.5283 20.5292 81.3094 24.2763V24.2773L81.3092 24.2784C81.1412 27.1123 81.6487 29.1199 82.4358 30.5449C83.2189 31.9627 84.359 32.9504 85.7079 33.6213C88.4969 35.0084 92.0977 34.9855 94.5031 34.3872L94.8459 34.3007C98.3682 33.3979 101.26 32.2114 104.37 28.8381L104.445 28.7556C106.013 27.0073 107.152 24.2252 107.301 21.452C107.452 18.6494 106.591 16.2818 104.7 14.9196L104.699 14.9191L104.699 14.9185C102.981 13.679 100.875 13.388 98.4474 13.7211C95.9946 14.0575 93.4601 14.998 91.1054 15.9562L91.1055 15.9563C90.6717 16.1346 89.9063 16.5365 89.0038 17.0287C88.1752 17.4805 87.2332 18.0073 86.6265 18.3091L84.6741 14.385C85.1825 14.1321 85.985 13.6827 86.9054 13.1808C87.7518 12.7192 88.7401 12.1897 89.4398 11.9022L89.4431 11.9008L89.4465 11.8994L89.8983 11.7167C92.1918 10.7947 94.9925 9.77103 97.8517 9.37881Z" fill="white"/>
<path d="M126.801 10.0982C130.654 9.06023 134.737 8.95089 138.228 9.67886C141.684 10.3996 145.025 12.0534 146.605 14.9706L144.678 16.0142L142.751 17.0577C142.068 15.7974 140.256 14.579 137.333 13.9695C134.545 13.3881 131.16 13.4634 127.943 14.3297L127.79 14.3716C121.561 16.1011 118.6 19.5098 117.784 22.4589C116.976 25.376 118.11 28.2074 120.904 29.673C123.893 31.2406 128.24 31.0868 132.741 29.8286C135.058 29.1812 137.262 28.2835 139.133 27.3284C138.941 26.2591 138.868 25.2928 138.9 24.4223C139.013 21.3679 140.512 19.1213 142.953 18.57C145.087 18.0881 147.429 19.1345 148.389 21.1922C149.457 23.4825 148.48 25.9969 146.196 27.9659L146.086 28.0592C145.546 28.5128 144.92 28.9753 144.225 29.436C144.746 30.9413 145.516 32.7326 146.62 34.8443L146.73 35.059C147.714 36.9994 148.24 38.8646 148.281 40.637C149.588 41.4573 150.798 42.4026 151.865 43.4854L148.743 46.5618C148.262 46.0733 147.733 45.6139 147.163 45.1831C146.855 45.7257 146.492 46.2338 146.08 46.7061C143.64 49.5046 139.596 50.9738 135.588 51.6045C131.503 52.2474 127.02 52.0908 123.25 51.2539C121.364 50.835 119.583 50.23 118.095 49.4173C116.632 48.6183 115.273 47.5202 114.504 46.0272C113.727 44.5195 113.653 42.9015 114.387 41.4227C115.06 40.0677 116.282 39.0915 117.571 38.3905C120.158 36.9839 123.91 36.1998 127.895 36.0096C131.929 35.8171 136.438 36.2218 140.652 37.381C141.564 37.632 142.47 37.9205 143.359 38.249C143.214 37.8687 143.037 37.4666 142.822 37.0421L142.736 36.875C141.731 34.9539 140.944 33.205 140.352 31.6161C138.38 32.5661 136.181 33.418 133.921 34.0497C129.065 35.407 123.354 35.9074 118.868 33.5544C114.188 31.0994 112.22 26.131 113.559 21.29C114.89 16.4809 119.325 12.173 126.618 10.1484L126.801 10.0982ZM139.489 41.607C135.765 40.5825 131.724 40.2148 128.104 40.3875C124.435 40.5626 121.43 41.2814 119.665 42.2411C118.778 42.7232 118.425 43.146 118.313 43.3717C118.262 43.4736 118.193 43.618 118.4 44.02C118.615 44.4368 119.143 44.9958 120.196 45.5705C121.224 46.1317 122.588 46.6173 124.2 46.9752C127.428 47.6918 131.358 47.8334 134.907 47.2749C138.532 46.7043 141.341 45.4723 142.776 43.8257C143.01 43.5576 143.209 43.2774 143.372 42.9827C142.158 42.4412 140.855 41.9827 139.489 41.607ZM144.417 23.0449C144.372 22.9499 144.146 22.7941 143.919 22.8453C143.866 22.8571 143.771 22.8887 143.654 23.0571C143.523 23.2461 143.313 23.6918 143.28 24.5837C143.279 24.6201 143.278 24.6571 143.277 24.6946C144.035 24.057 144.301 23.5744 144.387 23.3259C144.428 23.2053 144.431 23.1334 144.429 23.1035C144.428 23.0737 144.422 23.0571 144.417 23.0449Z" fill="white"/>
<path d="M230.671 1.52231C226.022 14.0797 226.925 29.1996 230.617 37.4675L226.615 39.2547C222.415 29.8493 221.55 13.5353 226.561 0.000488281L230.671 1.52231Z" fill="white"/>
<path d="M19.781 12.5283C23.1921 9.71859 26.8898 8.72977 30.2595 9.42599C33.6561 10.1278 36.3768 12.4752 37.876 15.6315C40.9199 22.0401 38.9534 31.3916 29.2254 39.0347L27.8715 37.3115L26.5177 35.5882C35.1351 28.8177 35.8358 21.5518 33.917 17.5119C32.9347 15.4441 31.2665 14.1096 29.3727 13.7183C27.5347 13.3385 25.151 13.7822 22.5668 15.912L22.4436 16.0147C22.0226 16.3696 21.6214 16.7287 21.2393 17.091C21.8759 18.5438 22.2868 20.1219 22.5236 21.6771C22.9607 24.5474 22.8461 27.5978 22.2712 30.196C21.9832 31.4975 21.5674 32.7416 21.0078 33.816C20.475 34.839 19.7479 35.83 18.7603 36.513L18.6638 36.578C17.6379 37.255 16.4882 37.681 15.2823 37.6377C14.0365 37.593 12.9678 37.0543 12.1639 36.2315C10.6576 34.6896 10.1272 32.2526 10.202 29.8331C10.3216 25.9671 11.987 21.1124 15.7321 16.5754C14.7808 15.6403 13.5207 15.1412 11.6634 15.4779L11.568 15.4957C8.09025 16.1722 5.79973 18.6412 4.96284 22.483C4.70281 23.6767 4.5886 24.9982 4.63444 26.4195C4.82258 28.4208 5.12215 30.3281 5.55275 32.0442C6.04559 33.7801 6.74214 35.5909 7.66086 37.4426L3.73463 39.3906C3.50904 38.9359 3.29463 38.481 3.09079 38.0267L3.08811 38.0281C2.34422 36.5803 1.76598 34.9375 1.32168 33.1873C0.69133 30.953 0.335897 28.7686 0.257406 26.6897C0.148394 25.4962 0.0782428 24.3008 0.0391164 23.1257C-0.136642 17.8473 0.304519 12.657 0.869902 9.22696L3.03215 9.5834L5.1945 9.93983C4.9964 11.1417 4.81285 12.5971 4.6705 14.2138C6.27285 12.7248 8.29947 11.6665 10.7311 11.1935L10.8973 11.1624C14.1408 10.5795 16.8095 11.5144 18.7638 13.4102C19.0412 13.1591 19.3262 12.9101 19.6188 12.6635L19.781 12.5283ZM17.9172 20.941C15.6101 24.2699 14.6578 27.5443 14.5828 29.9687C14.5239 31.8714 15.0016 32.8641 15.299 33.1685C15.3968 33.2687 15.429 33.2573 15.4395 33.2577C15.4899 33.2595 15.752 33.2483 16.2499 32.9198L16.2887 32.8929C16.4889 32.7467 16.7928 32.4204 17.1205 31.7913C17.4604 31.1387 17.7643 30.2772 17.9917 29.2491C18.4478 27.1878 18.5478 24.6823 18.1907 22.3369C18.117 21.8534 18.0253 21.3872 17.9172 20.941Z" fill="white"/>
<path d="M155.127 15.2721C159.327 11.0192 165.99 9.1081 171.693 9.21572C174.573 9.27006 177.397 9.83874 179.682 11.0362C181.991 12.2457 183.888 14.1878 184.444 16.9494L184.469 17.0795C184.968 19.8108 183.825 22.3493 182.101 24.3162C180.342 26.3232 177.809 27.9582 175.003 29.0148C169.44 31.1096 162.074 31.1602 156.701 26.2771L159.649 23.0336C163.411 26.4528 168.865 26.6426 173.459 24.913C175.731 24.0575 177.611 22.7893 178.805 21.4273C179.987 20.0779 180.337 18.8485 180.156 17.8612L180.147 17.8143C179.922 16.6974 179.143 15.7018 177.648 14.9184C176.13 14.123 174.023 13.6434 171.611 13.5979C166.731 13.5058 161.37 15.1885 158.245 18.3521C152.231 24.4408 155.837 33.1783 162.965 34.3701L163.162 34.4023C171.462 35.7262 176.901 32.5412 179.435 29.043L181.21 30.3282L182.985 31.6135C179.408 36.5531 172.276 40.2928 162.475 38.731L162.243 38.6931C151.791 36.9458 146.489 24.0164 155.127 15.2721Z" fill="white"/>
<path d="M218.072 9.7987L220.216 10.2496C219.571 13.3158 219.021 18.4103 219.208 23.5917C219.397 28.8549 220.335 33.7844 222.337 36.838L220.505 38.0394L218.673 39.2407C217.497 37.4479 216.652 35.301 216.056 32.9969C212.558 36.2996 208.239 37.9131 205.208 38.6887L205.013 38.7379C201.916 39.5082 197.188 39.6211 193.211 37.6431C191.177 36.6314 189.325 35.0612 188.055 32.7624C186.79 30.4708 186.184 27.6029 186.39 24.119C186.675 19.252 188.438 14.9188 191.777 10.0535L193.584 11.2933L195.39 12.5331C192.353 16.959 190.989 20.5338 190.765 24.3766V24.3775L190.765 24.3786C190.597 27.2119 191.104 29.2191 191.891 30.6438C192.674 32.0614 193.814 33.0489 195.162 33.7196C197.951 35.1065 201.551 35.0835 203.956 34.4854L204.131 34.4411C207.596 33.5534 212.281 31.5824 215.082 27.4174C214.953 26.1873 214.872 24.9561 214.829 23.7494C214.629 18.2205 215.208 12.77 215.928 9.34766L218.072 9.7987Z" fill="white"/>
</svg>
