<svg width="4" height="12" viewBox="0 0 4 12" fill="none" xmlns="http://www.w3.org/2000/svg">
<path d="M1.99999 2.4C2.65999 2.4 3.19999 1.86 3.19999 1.2C3.19999 0.54 2.65999 0 1.99999 0C1.33999 0 0.799988 0.54 0.799988 1.2C0.799988 1.86 1.33999 2.4 1.99999 2.4ZM1.99999 4.8C1.33999 4.8 0.799988 5.34 0.799988 6C0.799988 6.66 1.33999 7.2 1.99999 7.2C2.65999 7.2 3.19999 6.66 3.19999 6C3.19999 5.34 2.65999 4.8 1.99999 4.8ZM1.99999 9.6C1.33999 9.6 0.799988 10.14 0.799988 10.8C0.799988 11.46 1.33999 12 1.99999 12C2.65999 12 3.19999 11.46 3.19999 10.8C3.19999 10.14 2.65999 9.6 1.99999 9.6Z" fill="#848484"/>
</svg>
