<svg width="4" height="12" viewBox="0 0 4 12" fill="none" xmlns="http://www.w3.org/2000/svg">
<path id="Vector" d="M2.00005 2.4C2.66005 2.4 3.20005 1.86 3.20005 1.2C3.20005 0.54 2.66005 0 2.00005 0C1.34005 0 0.800049 0.54 0.800049 1.2C0.800049 1.86 1.34005 2.4 2.00005 2.4ZM2.00005 4.8C1.34005 4.8 0.800049 5.34 0.800049 6C0.800049 6.66 1.34005 7.2 2.00005 7.2C2.66005 7.2 3.20005 6.66 3.20005 6C3.20005 5.34 2.66005 4.8 2.00005 4.8ZM2.00005 9.6C1.34005 9.6 0.800049 10.14 0.800049 10.8C0.800049 11.46 1.34005 12 2.00005 12C2.66005 12 3.20005 11.46 3.20005 10.8C3.20005 10.14 2.66005 9.6 2.00005 9.6Z" fill="#848484"/>
</svg>
