<svg width="40" height="40" viewBox="0 0 40 40" fill="none" xmlns="http://www.w3.org/2000/svg">
<g id="book_2">
<mask id="mask0_1990_1031" style="mask-type:alpha" maskUnits="userSpaceOnUse" x="0" y="0" width="40" height="40">
<rect id="Bounding box" width="40" height="40" fill="#D9D9D9"/>
</mask>
<g mask="url(#mask0_1990_1031)">
<path id="book_2_2" d="M13.8078 33C12.7513 33 11.8525 32.6295 11.1115 31.8885C10.3705 31.1475 10 30.2488 10 29.1923V10.3845C10 9.168 10.4266 8.13313 11.2799 7.27988C12.1331 6.42663 13.168 6 14.3845 6H31V26.6539C30.32 26.6539 29.7461 26.905 29.2784 27.4072C28.8106 27.9095 28.5767 28.5045 28.5767 29.1923C28.5767 29.88 28.8106 30.475 29.2784 30.9772C29.7461 31.4795 30.32 31.7306 31 31.7306V33H13.8078ZM15.0767 25.3845H16.3461V7.26937H15.0767V25.3845ZM13.8078 31.7306H28.2722C27.9632 31.3961 27.7252 31.012 27.5582 30.5782C27.3912 30.1447 27.3077 29.6828 27.3077 29.1923C27.3077 28.7065 27.3907 28.2456 27.5567 27.8096C27.7227 27.3736 27.9631 26.9884 28.2779 26.6539H13.8078C13.095 26.6539 12.4938 26.9009 12.004 27.3949C11.5143 27.8886 11.2694 28.4878 11.2694 29.1923C11.2694 29.905 11.5143 30.5063 12.004 30.996C12.4938 31.4858 13.095 31.7306 13.8078 31.7306Z" fill="white"/>
</g>
</g>
</svg>
