<svg width="40" height="40" viewBox="0 0 40 40" fill="none" xmlns="http://www.w3.org/2000/svg">
<g id="search">
<mask id="mask0_1990_166" style="mask-type:alpha" maskUnits="userSpaceOnUse" x="0" y="0" width="40" height="40">
<rect id="Bounding box" width="40" height="40" fill="#D9D9D9"/>
</mask>
<g mask="url(#mask0_1990_166)">
<path id="search_2" d="M32.8183 34.2779L22.1196 23.5791C21.289 24.2975 20.3251 24.8539 19.2279 25.2483C18.1304 25.6425 16.9946 25.8396 15.8204 25.8396C12.9843 25.8396 10.584 24.8579 8.61959 22.8946C6.65542 20.9312 5.67334 18.5446 5.67334 15.7346C5.67334 12.9243 6.65501 10.5366 8.61834 8.57165C10.5817 6.60665 12.9704 5.62415 15.7846 5.62415C18.5988 5.62415 20.9881 6.60595 22.9525 8.56956C24.9172 10.5335 25.8996 12.921 25.8996 15.7321C25.8996 16.9071 25.6997 18.0437 25.3 19.1421C24.9006 20.2404 24.3376 21.2222 23.6113 22.0875L34.3267 32.7583L32.8183 34.2779ZM15.8033 23.7458C18.037 23.7458 19.929 22.9686 21.4796 21.4141C23.0301 19.8594 23.8054 17.9653 23.8054 15.7316C23.8054 13.498 23.0301 11.604 21.4796 10.0496C19.929 8.49512 18.037 7.7179 15.8033 7.7179C13.5603 7.7179 11.6601 8.49512 10.1029 10.0496C8.5457 11.604 7.76709 13.498 7.76709 15.7316C7.76709 17.9653 8.5457 19.8594 10.1029 21.4141C11.6601 22.9686 13.5603 23.7458 15.8033 23.7458Z" fill="white"/>
</g>
</g>
</svg>
