<svg width="40" height="40" viewBox="0 0 40 40" fill="none" xmlns="http://www.w3.org/2000/svg">
<g id="add_box">
<mask id="mask0_1990_6631" style="mask-type:alpha" maskUnits="userSpaceOnUse" x="0" y="0" width="40" height="40">
<rect id="Bounding box" width="40" height="40" fill="#D9D9D9"/>
</mask>
<g mask="url(#mask0_1990_6631)">
<path id="add_box_2" d="M19.3655 26.75H20.6345V20.6345H26.75V19.3655H20.6345V13.25H19.3655V19.3655H13.25V20.6345H19.3655V26.75ZM10.1923 32C9.57775 32 9.05875 31.7882 8.63525 31.3647C8.21175 30.9412 8 30.4222 8 29.8077V10.1923C8 9.57775 8.21175 9.05875 8.63525 8.63525C9.05875 8.21175 9.57775 8 10.1923 8H29.8077C30.4222 8 30.9412 8.21175 31.3647 8.63525C31.7882 9.05875 32 9.57775 32 10.1923V29.8077C32 30.4222 31.7882 30.9412 31.3647 31.3647C30.9412 31.7882 30.4222 32 29.8077 32H10.1923Z" fill="white"/>
</g>
</g>
</svg>
