<svg width="40" height="40" viewBox="0 0 40 40" fill="none" xmlns="http://www.w3.org/2000/svg">
<g id="add_box">
<mask id="mask0_1990_1026" style="mask-type:alpha" maskUnits="userSpaceOnUse" x="0" y="0" width="40" height="40">
<rect id="Bounding box" width="40" height="40" fill="#D9D9D9"/>
</mask>
<g mask="url(#mask0_1990_1026)">
<path id="add_box_2" d="M19.3655 26.75H20.6345V20.6345H26.75V19.3655H20.6345V13.25H19.3655V19.3655H13.25V20.6345H19.3655V26.75ZM10.1923 32C9.57775 32 9.05875 31.7883 8.63525 31.3648C8.21175 30.9413 8 30.4223 8 29.8078V10.1923C8 9.57778 8.21175 9.05878 8.63525 8.63528C9.05875 8.21178 9.57775 8.00003 10.1923 8.00003H29.8077C30.4222 8.00003 30.9412 8.21178 31.3647 8.63528C31.7882 9.05878 32 9.57778 32 10.1923V29.8078C32 30.4223 31.7882 30.9413 31.3647 31.3648C30.9412 31.7883 30.4222 32 29.8077 32H10.1923ZM10.1923 30.7307H29.8077C30.0385 30.7307 30.25 30.6345 30.4423 30.4423C30.6345 30.25 30.7306 30.0385 30.7306 29.8078V10.1923C30.7306 9.96153 30.6345 9.75003 30.4423 9.55778C30.25 9.36553 30.0385 9.2694 29.8077 9.2694H10.1923C9.9615 9.2694 9.75 9.36553 9.55775 9.55778C9.3655 9.75003 9.26938 9.96153 9.26938 10.1923V29.8078C9.26938 30.0385 9.3655 30.25 9.55775 30.4423C9.75 30.6345 9.9615 30.7307 10.1923 30.7307Z" fill="#CACACA"/>
</g>
</g>
</svg>
