<svg width="40" height="41" viewBox="0 0 40 41" fill="none" xmlns="http://www.w3.org/2000/svg">
<g id="book_2">
<mask id="mask0_1990_3818" style="mask-type:alpha" maskUnits="userSpaceOnUse" x="0" y="0" width="40" height="41">
<rect id="Bounding box" y="0.5" width="40" height="40" fill="#D9D9D9"/>
</mask>
<g mask="url(#mask0_1990_3818)">
<path id="book_2_2" d="M13.8078 33.5C12.755 33.5 11.8571 33.1286 11.1141 32.3859C10.3714 31.6429 10 30.745 10 29.6923V10.8845C10 9.67025 10.4272 8.636 11.2817 7.78175C12.136 6.92725 13.1703 6.5 14.3845 6.5H31V27.1539C30.32 27.1539 29.7461 27.405 29.2784 27.9072C28.8106 28.4095 28.5767 29.0045 28.5767 29.6923C28.5767 30.38 28.8106 30.975 29.2784 31.4772C29.7461 31.9795 30.32 32.2306 31 32.2306V33.5H13.8078ZM11.2694 26.8546C11.6039 26.5401 11.9842 26.2997 12.4105 26.1335C12.8367 25.9675 13.3025 25.8845 13.8078 25.8845H15.0767V7.76937H14.3845C13.5235 7.76937 12.789 8.07325 12.181 8.681C11.5733 9.289 11.2694 10.0256 11.2694 10.8909V26.8546ZM16.3461 25.8845H29.7306V7.76937H16.3461V25.8845ZM13.801 32.2306H28.2722C27.9632 31.8961 27.7252 31.5114 27.5582 31.0764C27.3912 30.6414 27.3077 30.18 27.3077 29.6923C27.3077 29.2065 27.3907 28.7456 27.5567 28.3096C27.7227 27.8736 27.9631 27.4884 28.2779 27.1539H13.8014C13.0929 27.1539 12.4938 27.4001 12.004 27.8926C11.5143 28.3851 11.2694 28.9853 11.2694 29.693C11.2694 30.4053 11.5143 31.0063 12.004 31.496C12.4938 31.9858 13.0927 32.2306 13.801 32.2306Z" fill="#CACACA"/>
</g>
</g>
</svg>
