<svg width="40" height="40" viewBox="0 0 40 40" fill="none" xmlns="http://www.w3.org/2000/svg">
<g id="search">
<mask id="mask0_1990_1021" style="mask-type:alpha" maskUnits="userSpaceOnUse" x="0" y="0" width="40" height="40">
<rect id="Bounding box" width="40" height="40" fill="#D9D9D9"/>
</mask>
<g mask="url(#mask0_1990_1021)">
<path id="search_2" d="M32.6366 33.5833L22.0449 22.9912C21.2172 23.7246 20.2563 24.2865 19.1624 24.6771C18.0688 25.0676 16.9691 25.2629 15.8633 25.2629C13.2033 25.2629 10.952 24.3435 9.10953 22.5046C7.2673 20.666 6.34619 18.4226 6.34619 15.7746C6.34619 13.1265 7.2655 10.8814 9.10411 9.03915C10.943 7.19693 13.1859 6.27582 15.8329 6.27582C18.4798 6.27582 20.7286 7.19568 22.5791 9.0354C24.4294 10.8751 25.3545 13.1186 25.3545 15.7658C25.3545 16.9147 25.1494 18.0365 24.7391 19.1312C24.3288 20.226 23.7676 21.1758 23.0554 21.9808L33.6537 32.545L32.6366 33.5833ZM15.8566 23.8525C18.1247 23.8525 20.0397 23.0735 21.6016 21.5154C23.1636 19.9573 23.9445 18.0419 23.9445 15.7692C23.9445 13.4964 23.1636 11.581 21.6016 10.0229C20.0397 8.46485 18.1247 7.68582 15.8566 7.68582C13.5852 7.68582 11.6673 8.46485 10.1029 10.0229C8.53841 11.581 7.75619 13.4964 7.75619 15.7692C7.75619 18.0419 8.53841 19.9573 10.1029 21.5154C11.6673 23.0735 13.5852 23.8525 15.8566 23.8525Z" fill="#CACACA"/>
</g>
</g>
</svg>
