<svg width="3" height="12" viewBox="0 0 3 12" fill="none" xmlns="http://www.w3.org/2000/svg">
<path d="M1.69609 2.4C2.35609 2.4 2.89609 1.86 2.89609 1.2C2.89609 0.54 2.35609 0 1.69609 0C1.03609 0 0.496094 0.54 0.496094 1.2C0.496094 1.86 1.03609 2.4 1.69609 2.4ZM1.69609 4.8C1.03609 4.8 0.496094 5.34 0.496094 6C0.496094 6.66 1.03609 7.2 1.69609 7.2C2.35609 7.2 2.89609 6.66 2.89609 6C2.89609 5.34 2.35609 4.8 1.69609 4.8ZM1.69609 9.6C1.03609 9.6 0.496094 10.14 0.496094 10.8C0.496094 11.46 1.03609 12 1.69609 12C2.35609 12 2.89609 11.46 2.89609 10.8C2.89609 10.14 2.35609 9.6 1.69609 9.6Z" fill="#848484"/>
</svg>
