<svg width="32" height="32" viewBox="0 0 32 32" fill="none" xmlns="http://www.w3.org/2000/svg">
<g id="icon">
<mask id="mask0_1990_2124" style="mask-type:alpha" maskUnits="userSpaceOnUse" x="0" y="0" width="32" height="32">
<rect id="Bounding box" width="32" height="32" fill="#D9D9D9"/>
</mask>
<g mask="url(#mask0_1990_2124)">
<path id="favorite" d="M16 26.2L15.1623 25.4324C12.9499 23.4108 11.1229 21.6765 9.68133 20.2294C8.23956 18.7825 7.09767 17.5076 6.25567 16.4047C5.41344 15.3018 4.82689 14.3073 4.496 13.421C4.16533 12.5348 4 11.6509 4 10.7694C4 9.10137 4.56611 7.70059 5.69833 6.56703C6.83056 5.43348 8.23022 4.8667 9.89733 4.8667C11.0984 4.8667 12.2181 5.18381 13.2563 5.81803C14.2946 6.45225 15.2091 7.37792 16 8.59503C16.8342 7.35614 17.7613 6.42503 18.7813 5.8017C19.8013 5.17837 20.9084 4.8667 22.1027 4.8667C23.7698 4.8667 25.1694 5.43348 26.3017 6.56703C27.4339 7.70059 28 9.10137 28 10.7694C28 11.6509 27.8347 12.5348 27.504 13.421C27.1731 14.3073 26.5872 15.3006 25.7463 16.401C24.9054 17.5015 23.765 18.7764 22.325 20.2257C20.885 21.6753 19.0559 23.4108 16.8377 25.4324L16 26.2ZM16 24.6804C18.166 22.7106 19.9484 21.0233 21.3473 19.6184C22.746 18.2135 23.8554 16.9885 24.6757 15.9434C25.4959 14.8985 26.067 13.9724 26.389 13.165C26.7108 12.3575 26.8717 11.5599 26.8717 10.7724C26.8717 9.40503 26.4181 8.26692 25.511 7.35803C24.6039 6.44937 23.4694 5.99503 22.1077 5.99503C21.0019 5.99503 19.9888 6.31503 19.0683 6.95503C18.1481 7.59526 17.2957 8.58059 16.511 9.91103H15.4837C14.6854 8.57837 13.8278 7.59248 12.9107 6.95337C11.9933 6.31448 10.9872 5.99503 9.89233 5.99503C8.54767 5.99503 7.41744 6.44937 6.50167 7.35803C5.58611 8.26692 5.12833 9.40826 5.12833 10.782C5.12833 11.5663 5.29022 12.3624 5.614 13.1704C5.93756 13.9786 6.50556 14.9051 7.318 15.95C8.13044 16.9947 9.241 18.2166 10.6497 19.6157C12.0581 21.015 13.8416 22.7033 16 24.6804Z" fill="white"/>
</g>
</g>
</svg>
