<svg width="32" height="32" viewBox="0 0 32 32" fill="none" xmlns="http://www.w3.org/2000/svg">
<g id="icon">
<mask id="mask0_1990_2129" style="mask-type:alpha" maskUnits="userSpaceOnUse" x="0" y="0" width="32" height="32">
<rect id="Bounding box" width="32" height="32" fill="#D9D9D9"/>
</mask>
<g mask="url(#mask0_1990_2129)">
<path id="maps_ugc" d="M3.28198 28.718L5.30432 21.7657C4.87854 20.8534 4.54387 19.9198 4.30032 18.9647C4.05676 18.0096 3.93498 17.0321 3.93498 16.0323C3.93498 14.369 4.24987 12.8073 4.87965 11.3473C5.50943 9.88733 6.36865 8.61278 7.45732 7.52367C8.54598 6.43456 9.82009 5.575 11.2796 4.945C12.7392 4.315 14.3003 4 15.963 4C17.6259 4 19.1878 4.31489 20.6486 4.94467C22.1093 5.57445 23.3845 6.43367 24.4743 7.52233C25.5641 8.611 26.4241 9.88511 27.0543 11.3447C27.6848 12.804 28 14.3651 28 16.028C28 17.6909 27.685 19.2527 27.055 20.7133C26.425 22.1742 25.5654 23.4496 24.4763 24.5393C23.3872 25.6291 22.1126 26.4891 20.6526 27.1193C19.1926 27.7498 17.631 28.065 15.9676 28.065C14.9679 28.065 13.9904 27.9432 13.0353 27.6997C12.0802 27.4561 11.1465 27.1214 10.2343 26.6957L3.28198 28.718ZM4.99132 27.0087L9.36065 25.742C9.71287 25.6496 10.0321 25.6097 10.3183 25.6223C10.6048 25.6348 10.9185 25.7191 11.2596 25.8753C11.9959 26.2127 12.7602 26.4739 13.5526 26.659C14.3451 26.8441 15.1489 26.9367 15.964 26.9367C18.9978 26.9367 21.5742 25.8783 23.6933 23.7617C25.8122 21.645 26.8716 19.0698 26.8716 16.036C26.8716 13.0022 25.8133 10.4258 23.6966 8.30667C21.58 6.18778 19.0048 5.12833 15.971 5.12833C12.9374 5.12833 10.3611 6.18511 8.24198 8.29867C6.12287 10.4124 5.06332 12.9921 5.06332 16.0377C5.06332 16.8559 5.14509 17.6619 5.30865 18.4557C5.4722 19.2492 5.7442 20.0108 6.12465 20.7403C6.2802 21.0281 6.36498 21.3388 6.37898 21.6723C6.39298 22.0061 6.35265 22.3284 6.25798 22.6393L4.99132 27.0087Z" fill="white"/>
</g>
</g>
</svg>
