<svg width="40" height="41" viewBox="0 0 40 41" fill="none" xmlns="http://www.w3.org/2000/svg">
<mask id="mask0_784_6643" style="mask-type:alpha" maskUnits="userSpaceOnUse" x="0" y="0" width="40" height="41">
<rect y="0.760742" width="40" height="40" fill="#D9D9D9"/>
</mask>
<g mask="url(#mask0_784_6643)">
<path d="M13.8078 33.7607C12.755 33.7607 11.8571 33.3894 11.1141 32.6466C10.3714 31.9036 10 31.0057 10 29.953V11.1452C10 9.93099 10.4272 8.89674 11.2817 8.04249C12.136 7.18799 13.1702 6.76074 14.3845 6.76074H31V27.4146C30.32 27.4146 29.7461 27.6657 29.2784 28.168C28.8106 28.6702 28.5767 29.2652 28.5767 29.953C28.5767 30.6407 28.8106 31.2357 29.2784 31.738C29.7461 32.2402 30.32 32.4914 31 32.4914V33.7607H13.8078ZM11.2694 27.1154C11.6039 26.8009 11.9842 26.5605 12.4105 26.3942C12.8367 26.2282 13.3025 26.1452 13.8078 26.1452H15.0767V8.03012H14.3845C13.5235 8.03012 12.789 8.33399 12.181 8.94174C11.5733 9.54974 11.2694 10.2864 11.2694 11.1516V27.1154ZM16.3461 26.1452H29.7306V8.03012H16.3461V26.1452ZM13.801 32.4914H28.2722C27.9632 32.1569 27.7252 31.7721 27.5582 31.3371C27.3912 30.9021 27.3077 30.4407 27.3077 29.953C27.3077 29.4672 27.3907 29.0064 27.5567 28.5704C27.7227 28.1344 27.9631 27.7491 28.2779 27.4146H13.8014C13.0929 27.4146 12.4937 27.6609 12.004 28.1534C11.5143 28.6459 11.2694 29.246 11.2694 29.9537C11.2694 30.666 11.5143 31.267 12.004 31.7567C12.4937 32.2465 13.0927 32.4914 13.801 32.4914Z" fill="white"/>
</g>
</svg>
